#!OML:ASF X:\für Bonn\!DataBase\2005_08_10_Bjorn_Final\c3d\bjorn.ASF
:FULLY-SPECIFIED
:DEGREES
76
root 4.11216 20.5766 -12.466 -1.4258 -6.64052 362.4
lowerback -4.1433 1.98842 1.18661
upperback 9.40827 2.56837 -0.0461955
thorax 12.5368 1.34641 -0.330733
lowerneck -12.4475 -0.939677 1.27766
upperneck -4.04603 -1.41457 -2.75848
head 0.788127 -0.778139 -1.14243
rclavicle -1.40143e-014 -7.55382e-015
rhumerus -77.2316 -22.7597 -43.9965
rradius 101.63
rwrist -10.0875
rhand -26.5147 19.565
rfingers 7.12502
rthumb 0.0486432 -10.4147
lclavicle -1.40143e-014 -7.55382e-015
lhumerus -65.6897 6.38012 66.4567
lradius 75.3233
lwrist 16.2028
lhand -36.5167 -12.2216
lfingers 7.12502
lthumb -9.60835 17.5392
rfemur -12.3138 -1.86023 13.9345
rtibia 35.9847
rfoot 8.80554 13.5448
rtoes -8.92408
lfemur -16.8446 7.85749 -18.5078
ltibia 35.1775
lfoot 7.37462 -3.51408
ltoes -20.3673
77
root 4.10765 20.3076 -12.3004 -1.75677 -6.59783 362.087
lowerback -3.78019 1.99695 1.43092
upperback 9.72659 2.54912 0.0392617
thorax 12.692 1.35767 -0.382485
lowerneck -12.5117 -0.880475 1.36331
upperneck -4.73957 -1.36244 -2.86463
head 0.576289 -0.752487 -1.18287
rclavicle -5.66536e-015 1.47101e-014
rhumerus -77.8987 -23.7877 -43.3051
rradius 97.139
rwrist -9.5466
rhand -27.0296 19.8186
rfingers 7.12502
rthumb -0.448675 -10.1606
lclavicle -5.66536e-015 1.47101e-014
lhumerus -65.5704 7.58997 66.8122
lradius 72.4607
lwrist 17.1282
lhand -37.2123 -8.81302
lfingers 7.12502
lthumb -10.2795 20.9158
rfemur -12.037 -1.38015 14.2168
rtibia 37.1295
rfoot 6.66435 14.0326
rtoes -7.12314
lfemur -17.0671 6.95234 -17.9856
ltibia 36.7706
lfoot 6.25736 -3.82841
ltoes -19.177
78
root 4.10102 20.0429 -12.1396 -2.05807 -6.51463 361.54
lowerback -3.38351 2.01763 1.89899
upperback 10.0246 2.52073 0.17348
thorax 12.8132 1.3844 -0.508237
lowerneck -12.4595 -0.834015 1.5514
upperneck -5.53824 -1.34356 -3.03633
head 0.311519 -0.744582 -1.26163
rclavicle 2.08724e-015 -1.19271e-014
rhumerus -78.175 -24.7828 -42.8805
rradius 92.5518
rwrist -9.32354
rhand -26.4615 19.3336
rfingers 7.12502
rthumb 0.100024 -10.6461
lclavicle 2.08724e-015 -1.19271e-014
lhumerus -65.1192 8.7637 67.1855
lradius 69.2635
lwrist 17.8858
lhand -37.3341 -5.9259
lfingers 7.12502
lthumb -10.3969 23.7971
rfemur -11.7229 -0.846871 14.7802
rtibia 38.4416
rfoot 4.04146 14.5837
rtoes -4.36849
lfemur -17.4606 5.99678 -17.2155
ltibia 38.7361
lfoot 4.51712 -4.37836
ltoes -19.3068
79
root 4.09479 19.7742 -11.9836 -2.21173 -6.44156 360.901
lowerback -3.06314 2.03274 2.42249
upperback 10.2513 2.47381 0.371286
thorax 12.8987 1.40387 -0.596566
lowerneck -12.3681 -0.792 1.64771
upperneck -6.33385 -1.32072 -3.2438
head 0.0430119 -0.732904 -1.33661
rclavicle -9.64106e-015 -7.95139e-015
rhumerus -78.1187 -25.7636 -42.4255
rradius 87.7143
rwrist -9.28067
rhand -25.0906 18.8094
rfingers 7.12502
rthumb 1.42409 -11.1656
lclavicle -9.64106e-015 -7.95139e-015
lhumerus -64.4927 9.98897 67.6702
lradius 65.9533
lwrist 18.5255
lhand -36.8123 -4.84031
lfingers 7.12502
lthumb -9.89353 24.9072
rfemur -11.6105 -0.444423 15.4545
rtibia 39.9842
rfoot 1.04579 15.4302
rtoes -2.07393
lfemur -18.1232 5.0495 -16.3688
ltibia 41.0195
lfoot 2.31383 -5.09833
ltoes -20.444
80
root 4.08869 19.5028 -11.8317 -2.23911 -6.35232 360.122
lowerback -2.82485 2.06131 3.09588
upperback 10.441 2.42946 0.585484
thorax 13.0016 1.43921 -0.746777
lowerneck -12.3747 -0.758898 1.77216
upperneck -7.01097 -1.31222 -3.41356
head -0.171632 -0.729403 -1.40813
rclavicle -2.46493e-014 8.74653e-015
rhumerus -77.7556 -26.8118 -42.3094
rradius 82.8105
rwrist -9.75895
rhand -23.7442 18.3921
rfingers 7.12502
rthumb 2.72436 -11.5703
lclavicle -2.46493e-014 8.74653e-015
lhumerus -63.4 11.1558 68.2952
lradius 62.5661
lwrist 19.4115
lhand -36.1196 -5.54375
lfingers 7.12502
lthumb -9.22516 24.2344
rfemur -11.6763 -0.137814 16.3111
rtibia 41.7259
rfoot -2.28145 16.4402
rtoes -1.07995
lfemur -18.9588 4.12136 -15.3868
ltibia 43.5144
lfoot -0.296522 -5.84473
ltoes -21.8297
81
root 4.08211 19.2342 -11.6818 -2.1024 -6.23532 359.721
lowerback -2.76266 2.07167 3.32468
upperback 10.5383 2.40569 0.738981
thorax 13.0832 1.44234 -0.708932
lowerneck -12.4683 -0.741966 1.76657
upperneck -7.44662 -1.30493 -3.56889
head -0.295173 -0.725179 -1.45551
rclavicle -9.14409e-015 -2.94201e-014
rhumerus -77.0357 -27.5839 -42.8052
rradius 78.0941
rwrist -11.1529
rhand -22.1727 17.4037
rfingers 7.12502
rthumb 4.242 -12.5338
lclavicle -9.14409e-015 -2.94201e-014
lhumerus -61.962 12.3977 69.0788
lradius 59.207
lwrist 20.1762
lhand -35.492 -6.43419
lfingers 7.12502
lthumb -8.61956 23.3699
rfemur -12.0405 0.0322431 16.7449
rtibia 43.6861
rfoot -5.75634 17.452
rtoes -0.723188
lfemur -19.9947 3.22944 -14.867
ltibia 46.0863
lfoot -3.4434 -6.49882
ltoes -22.5961
82
root 4.07695 18.9676 -11.5341 -1.97644 -6.1096 359.273
lowerback -2.63724 2.09125 3.63047
upperback 10.6164 2.39093 0.887293
thorax 13.1084 1.45784 -0.720994
lowerneck -12.7823 -0.735989 1.72643
upperneck -7.5543 -1.29944 -3.65748
head -0.278961 -0.724246 -1.47935
rclavicle -1.07344e-014 1.98785e-014
rhumerus -75.9275 -28.3265 -43.9446
rradius 73.8227
rwrist -13.0306
rhand -21.5923 15.9069
rfingers 7.12502
rthumb 4.80241 -14.0187
lclavicle -1.07344e-014 1.98785e-014
lhumerus -60.1871 13.4525 70.1527
lradius 56.1381
lwrist 20.396
lhand -35.4938 -6.19231
lfingers 7.12502
lthumb -8.62136 23.6117
rfemur -12.3908 0.157998 17.2343
rtibia 45.7453
rfoot -9.31674 18.3581
rtoes -1.30902
lfemur -20.963 2.33387 -14.314
ltibia 48.667
lfoot -6.91701 -6.85
ltoes -23.3064
83
root 4.07248 18.709 -11.3867 -1.83891 -5.96864 358.8
lowerback -2.51693 2.12147 3.98684
upperback 10.6789 2.38838 1.02145
thorax 13.1232 1.48531 -0.774825
lowerneck -13.0735 -0.738041 1.74241
upperneck -7.64781 -1.31112 -3.75674
head -0.2627 -0.733261 -1.51699
rclavicle 2.88238e-014 -2.82274e-014
rhumerus -74.3045 -29.1038 -45.7364
rradius 69.9182
rwrist -14.8118
rhand -21.7213 13.3915
rfingers 7.12502
rthumb 4.6779 -16.5369
lclavicle 2.88238e-014 -2.82274e-014
lhumerus -58.1391 14.2099 71.5476
lradius 53.461
lwrist 20.054
lhand -35.331 -4.34533
lfingers 7.12502
lthumb -8.46418 25.4651
rfemur -12.7181 0.238068 17.7543
rtibia 47.8023
rfoot -12.9272 19.082
rtoes -2.44254
lfemur -21.8665 1.47629 -13.7497
ltibia 51.1735
lfoot -10.217 -6.92656
ltoes -24.1644
84
root 4.07105 18.4589 -11.2386 -1.57757 -5.84076 358.19
lowerback -2.46742 2.14624 4.46428
upperback 10.649 2.35844 1.23165
thorax 13.0755 1.50497 -0.816882
lowerneck -13.1581 -0.740316 1.63468
upperneck -7.85246 -1.30805 -3.82592
head -0.31421 -0.728696 -1.52025
rclavicle 4.57205e-015 1.55052e-014
rhumerus -72.3104 -29.6164 -48.0797
rradius 66.6074
rwrist -17.0252
rhand -21.1025 12.3908
rfingers 7.12502
rthumb 5.27534 -17.5235
lclavicle 4.57205e-015 1.55052e-014
lhumerus -56.0844 14.835 73.1401
lradius 51.0884
lwrist 19.0686
lhand -34.1042 -4.82983
lfingers 7.12502
lthumb -7.28015 25.0249
rfemur -13.0934 0.320825 18.4364
rtibia 49.7441
rfoot -16.3927 19.6024
rtoes -3.34432
lfemur -22.8064 0.706346 -13.0634
ltibia 53.5807
lfoot -13.3045 -6.6904
ltoes -25.2043
85
root 4.0705 18.2285 -11.0916 -1.29361 -5.69585 357.557
lowerback -2.43479 2.17914 4.99818
upperback 10.625 2.3367 1.4172
thorax 13.0519 1.5361 -0.914624
lowerneck -13.1544 -0.754079 1.51648
upperneck -8.24901 -1.32064 -3.77984
head -0.441154 -0.728203 -1.48344
rclavicle -1.43125e-014 1.23246e-014
rhumerus -69.7657 -29.7557 -51.23
rradius 63.7153
rwrist -20.0758
rhand -19.2661 13.7955
rfingers 7.12502
rthumb 7.04831 -16.0671
lclavicle -1.43125e-014 1.23246e-014
lhumerus -53.663 15.2472 74.8543
lradius 48.8123
lwrist 17.641
lhand -31.5449 -8.08243
lfingers 7.12502
lthumb -4.80931 21.843
rfemur -13.3983 0.428175 19.169
rtibia 51.4964
rfoot -19.5493 19.9449
rtoes -3.05945
lfemur -23.6284 -0.207921 -12.395
ltibia 55.8245
lfoot -16.2112 -5.97789
ltoes -26.3132
86
root 4.07193 18.0216 -10.9463 -0.996749 -5.5095 357.021
lowerback -2.38137 2.20742 5.45276
upperback 10.5494 2.32424 1.56605
thorax 12.9515 1.56415 -1.01021
lowerneck -13.0366 -0.764539 1.41144
upperneck -8.65966 -1.3304 -3.73909
head -0.590547 -0.725105 -1.44995
rclavicle 3.83654e-014 1.82882e-014
rhumerus -67.1494 -29.8636 -54.5478
rradius 61.6132
rwrist -22.8149
rhand -16.6366 14.3182
rfingers 7.12502
rthumb 9.58594 -15.4437
lclavicle 3.83654e-014 1.82882e-014
lhumerus -50.9492 15.4874 76.6322
lradius 46.6733
lwrist 16.4285
lhand -28.674 -10.7666
lfingers 7.12502
lthumb -2.03687 19.2034
rfemur -13.6377 0.5784 19.8227
rtibia 53.0249
rfoot -22.4704 20.0561
rtoes -2.39064
lfemur -24.3364 -1.27109 -11.8985
ltibia 57.8824
lfoot -18.8901 -4.8459
ltoes -27.4124
87
root 4.07525 17.8354 -10.8025 -0.59966 -5.29192 356.534
lowerback -2.41011 2.23418 5.89977
upperback 10.4218 2.31058 1.68731
thorax 12.8423 1.59101 -1.13053
lowerneck -13.016 -0.77911 1.23981
upperneck -8.89961 -1.3299 -3.62639
head -0.668991 -0.716713 -1.38307
rclavicle 1.27222e-014 -1.11319e-014
rhumerus -63.9008 -29.5773 -58.8665
rradius 60.5368
rwrist -24.9042
rhand -16.5666 13.8059
rfingers 7.12502
rthumb 9.65356 -15.9529
lclavicle 1.27222e-014 -1.11319e-014
lhumerus -47.9007 15.3316 78.7331
lradius 45.0825
lwrist 15.4606
lhand -26.4379 -11.1827
lfingers 7.12502
lthumb 0.122764 18.7971
rfemur -13.9236 0.786017 20.4504
rtibia 54.3198
rfoot -25.0019 20.1041
rtoes -1.14249
lfemur -25.0669 -2.13576 -11.5083
ltibia 59.7522
lfoot -21.3247 -3.32126
ltoes -29.4486
